<svg width="17" height="17" viewBox="0 0 17 17" fill="none" xmlns="http://www.w3.org/2000/svg">
<path d="M8.33333 16.6667C7.18056 16.6667 6.09722 16.4479 5.08333 16.0104C4.06944 15.5729 3.1875 14.9792 2.4375 14.2292C1.6875 13.4792 1.09375 12.5972 0.65625 11.5833C0.21875 10.5694 0 9.48611 0 8.33333C0 7.18056 0.21875 6.09722 0.65625 5.08333C1.09375 4.06944 1.6875 3.1875 2.4375 2.4375C3.1875 1.6875 4.06944 1.09375 5.08333 0.65625C6.09722 0.21875 7.18056 0 8.33333 0C9.48611 0 10.5694 0.21875 11.5833 0.65625C12.5972 1.09375 13.4792 1.6875 14.2292 2.4375C14.9792 3.1875 15.5729 4.06944 16.0104 5.08333C16.4479 6.09722 16.6667 7.18056 16.6667 8.33333C16.6667 9.48611 16.4479 10.5694 16.0104 11.5833C15.5729 12.5972 14.9792 13.4792 14.2292 14.2292C13.4792 14.9792 12.5972 15.5729 11.5833 16.0104C10.5694 16.4479 9.48611 16.6667 8.33333 16.6667ZM8.33333 15C10.1944 15 11.7708 14.3542 13.0625 13.0625C14.3542 11.7708 15 10.1944 15 8.33333C15 6.47222 14.3542 4.89583 13.0625 3.60417C11.7708 2.3125 10.1944 1.66667 8.33333 1.66667C6.47222 1.66667 4.89583 2.3125 3.60417 3.60417C2.3125 4.89583 1.66667 6.47222 1.66667 8.33333C1.66667 10.1944 2.3125 11.7708 3.60417 13.0625C4.89583 14.3542 6.47222 15 8.33333 15ZM6.66667 11.6667H10C10.2361 11.6667 10.434 11.5868 10.5938 11.4271C10.7535 11.2674 10.8333 11.0694 10.8333 10.8333V10C10.8333 9.76389 10.7535 9.56597 10.5938 9.40625C10.434 9.24653 10.2361 9.16667 10 9.16667C9.76389 9.16667 9.56597 9.24653 9.40625 9.40625C9.24653 9.56597 9.16667 9.76389 9.16667 10H7.5V6.66667H9.16667C9.16667 6.90278 9.24653 7.10069 9.40625 7.26042C9.56597 7.42014 9.76389 7.5 10 7.5C10.2361 7.5 10.434 7.42014 10.5938 7.26042C10.7535 7.10069 10.8333 6.90278 10.8333 6.66667V5.83333C10.8333 5.59722 10.7535 5.39931 10.5938 5.23958C10.434 5.07986 10.2361 5 10 5H6.66667C6.43056 5 6.23264 5.07986 6.07292 5.23958C5.91319 5.39931 5.83333 5.59722 5.83333 5.83333V10.8333C5.83333 11.0694 5.91319 11.2674 6.07292 11.4271C6.23264 11.5868 6.43056 11.6667 6.66667 11.6667Z" fill="white"/>
</svg>
