<svg width="18" height="18" viewBox="0 0 18 18" fill="none" xmlns="http://www.w3.org/2000/svg">
<path d="M8.72774 0C6.35763 0 6.06018 0.0103638 5.1293 0.0527274C4.20024 0.0952729 3.56607 0.242364 3.01118 0.458182C2.4372 0.681091 1.9503 0.979273 1.46523 1.46455C0.979788 1.94964 0.681616 2.43655 0.457986 3.01036C0.241629 3.56545 0.0943607 4.19982 0.0525438 5.12855C0.0109087 6.05945 0 6.35709 0 8.72727C0 11.0975 0.0105453 11.394 0.0527258 12.3249C0.0954518 13.254 0.242538 13.8882 0.458168 14.4431C0.681252 15.0171 0.979425 15.504 1.46468 15.9891C1.94958 16.4745 2.43647 16.7735 3.01009 16.9964C3.56535 17.2122 4.19969 17.3593 5.12857 17.4018C6.05945 17.4442 6.35672 17.4545 8.72664 17.4545C11.0969 17.4545 11.3935 17.4442 12.3244 17.4018C13.2534 17.3593 13.8883 17.2122 14.4436 16.9964C15.0174 16.7735 15.5035 16.4745 15.9884 15.9891C16.4739 15.504 16.772 15.0171 16.9957 14.4433C17.2102 13.8882 17.3575 13.2538 17.4011 12.3251C17.4429 11.3942 17.4538 11.0975 17.4538 8.72727C17.4538 6.35709 17.4429 6.05964 17.4011 5.12873C17.3575 4.19964 17.2102 3.56545 16.9957 3.01055C16.772 2.43655 16.4739 1.94964 15.9884 1.46455C15.503 0.979091 15.0175 0.680909 14.443 0.458182C13.8867 0.242364 13.2521 0.0952729 12.3231 0.0527274C11.3922 0.0103638 11.0958 0 8.72501 0H8.72774ZM7.94485 1.57273C8.17721 1.57236 8.43647 1.57273 8.72774 1.57273C11.0578 1.57273 11.334 1.58109 12.2542 1.62291C13.1051 1.66182 13.5669 1.804 13.8745 1.92345C14.2817 2.08164 14.5721 2.27073 14.8774 2.57618C15.1828 2.88164 15.3719 3.17255 15.5304 3.57982C15.6499 3.88709 15.7922 4.34891 15.831 5.19982C15.8728 6.11982 15.8819 6.39618 15.8819 8.72527C15.8819 11.0544 15.8728 11.3307 15.831 12.2507C15.7921 13.1016 15.6499 13.5635 15.5304 13.8707C15.3723 14.278 15.1828 14.568 14.8774 14.8733C14.5719 15.1787 14.2819 15.3678 13.8745 15.526C13.5672 15.646 13.1051 15.7878 12.2542 15.8267C11.3342 15.8685 11.0578 15.8776 8.72774 15.8776C6.39744 15.8776 6.12127 15.8685 5.2013 15.8267C4.35041 15.7875 3.88861 15.6453 3.5808 15.5258C3.17354 15.3676 2.88264 15.1785 2.57719 14.8731C2.27175 14.5676 2.08266 14.2775 1.92412 13.87C1.80467 13.5627 1.66231 13.1009 1.62359 12.25C1.58177 11.33 1.57341 11.0536 1.57341 8.72309C1.57341 6.39255 1.58177 6.11764 1.62359 5.19764C1.6625 4.34673 1.80467 3.88491 1.92412 3.57727C2.0823 3.17 2.27175 2.87909 2.57719 2.57364C2.88264 2.26818 3.17354 2.07909 3.5808 1.92055C3.88843 1.80055 4.35041 1.65873 5.2013 1.61964C6.00636 1.58327 6.31835 1.57236 7.94485 1.57055V1.57273ZM13.3861 3.02182C12.808 3.02182 12.3389 3.49036 12.3389 4.06873C12.3389 4.64691 12.808 5.116 13.3861 5.116C13.9643 5.116 14.4334 4.64691 14.4334 4.06873C14.4334 3.49055 13.9643 3.02145 13.3861 3.02145V3.02182ZM8.72774 4.24545C6.25272 4.24545 4.24605 6.25218 4.24605 8.72727C4.24605 11.2024 6.25272 13.2082 8.72774 13.2082C11.2028 13.2082 13.2087 11.2024 13.2087 8.72727C13.2087 6.25218 11.2028 4.24545 8.72774 4.24545ZM8.72774 5.81818C10.3342 5.81818 11.6367 7.12055 11.6367 8.72727C11.6367 10.3338 10.3342 11.6364 8.72774 11.6364C7.12106 11.6364 5.81873 10.3338 5.81873 8.72727C5.81873 7.12055 7.12106 5.81818 8.72774 5.81818Z" fill="#4EA487"/>
</svg>
