<svg width="17" height="20" viewBox="0 0 17 20" fill="none" xmlns="http://www.w3.org/2000/svg">
<path d="M14.7536 4.15837C14.6224 4.09054 14.4946 4.01619 14.3708 3.93559C14.0108 3.69759 13.6808 3.41717 13.3877 3.10034C12.6546 2.26147 12.3808 1.41041 12.2799 0.81459H12.2839C12.1997 0.31999 12.2345 0 12.2398 0H8.90047V12.9126C8.90047 13.0859 8.90047 13.2573 8.89317 13.4266C8.89317 13.4476 8.89114 13.4671 8.88995 13.4898C8.88995 13.4991 8.88994 13.5088 8.88792 13.5185C8.88792 13.521 8.88792 13.5234 8.88792 13.5258C8.85272 13.9891 8.70419 14.4367 8.45544 14.8291C8.20667 15.2215 7.86527 15.5468 7.4613 15.7763C7.04025 16.0159 6.56404 16.1415 6.07962 16.1409C4.52377 16.1409 3.26282 14.8722 3.26282 13.3055C3.26282 11.7387 4.52377 10.47 6.07962 10.47C6.37414 10.4698 6.66684 10.5161 6.94687 10.6073L6.95092 7.20726C6.10085 7.09747 5.23722 7.16501 4.41457 7.40566C3.59189 7.64634 2.82804 8.05489 2.17117 8.60554C1.59562 9.10562 1.11174 9.70231 0.74132 10.3688C0.600345 10.6118 0.0684948 11.5884 0.00409476 13.1734C-0.0364052 14.0731 0.23377 15.0051 0.36257 15.3903V15.3984C0.443595 15.6253 0.75752 16.3993 1.26912 17.0519C1.68164 17.5753 2.16902 18.0351 2.71559 18.4165V18.4084L2.72369 18.4165C4.34029 19.5151 6.1327 19.443 6.1327 19.443C6.44297 19.4304 7.48235 19.443 8.66269 18.8836C9.97187 18.2634 10.7172 17.3395 10.7172 17.3395C11.1933 16.7874 11.5719 16.1583 11.8368 15.479C12.1389 14.6847 12.2398 13.732 12.2398 13.3512V6.50084C12.2803 6.52514 12.8198 6.88199 12.8198 6.88199C12.8198 6.88199 13.5972 7.38022 14.8099 7.70469C15.68 7.93556 16.8522 7.98417 16.8522 7.98417V4.66914C16.4415 4.71369 15.6075 4.58409 14.7536 4.15837Z" fill="#4EA487"/>
</svg>
